<svg xmlns="http://www.w3.org/2000/svg" width="430" height="430" style="width:100%;height:100%;transform:translate3d(0,0,0);content-visibility:visible" viewBox="0 0 430 430"><defs><clipPath id="c"><path d="M0 0h430v430H0z"/></clipPath><clipPath id="g"><path d="M0 0h430v430H0z"/></clipPath><clipPath id="f"><path d="M0 0h430v430H0z"/></clipPath><clipPath id="d"><path d="M0 0h430v430H0z"/></clipPath><path id="b" style="display:none"/><path id="a" style="display:none"/><mask id="h" mask-type="alpha"><use xmlns:ns1="http://www.w3.org/1999/xlink" ns1:href="#a"/></mask><mask id="e" mask-type="alpha"><use xmlns:ns2="http://www.w3.org/1999/xlink" ns2:href="#b"/></mask></defs><g clip-path="url(#c)"><g clip-path="url(#d)" style="display:none"><path class="secondary" style="display:none"/><g mask="url(#e)" style="mix-blend-mode:multiply;display:none"><path class="secondary"/><path class="secondary" style="mix-blend-mode:multiply"/></g><g fill="none" style="display:none"><path class="primary"/><path class="primary"/><path class="primary"/></g><path fill="none" class="primary" style="display:none"/></g><g clip-path="url(#f)" style="display:block"><path fill="#EBE6EF" d="M-155-135c-16.569 0-30 13.431-30 30v210c0 16.569 13.431 30 30 30h310c16.569 0 30-13.431 30-30v-210c0-16.569-13.431-30-30-30h-310z" class="secondary" style="display:block" transform="translate(215 215)"/><g opacity=".4" style="mix-blend-mode:multiply;display:block"><path fill="#EBE6EF" d="M30 110v210c0 16.569 13.431 30 30 30h310c16.569 0 30-13.431 30-30V110c0-16.569-13.431-30-30-30H60c-16.569 0-30 13.431-30 30zm20 0c0-5.523 4.477-10 10-10h310c5.523 0 10 4.477 10 10v210c0 5.523-4.477 10-10 10H60c-5.523 0-10-4.477-10-10V110z" class="secondary" opacity="1"/></g><g opacity=".3" style="mix-blend-mode:multiply;display:block"><path fill="#EBE6EF" d="M30 110c0-16.569 13.431-30 30-30h55c-16.569 0-30 13.431-30 30v210c0 16.569 13.431 30 30 30H60c-16.569 0-30-13.431-30-30V110z" class="secondary" opacity="1"/></g><path fill="none" stroke="#121331" stroke-linejoin="round" stroke-width="7" d="M-155-135c-16.569 0-30 13.431-30 30v210c0 16.569 13.431 30 30 30h310c16.569 0 30-13.431 30-30v-210c0-16.569-13.431-30-30-30h-310z" class="primary" style="display:block" transform="translate(215 215)"/><path fill="none" stroke="#121331" stroke-linecap="round" stroke-linejoin="round" stroke-width="7" d="M296.25 165h7.621l23.969 71.444 10.028 28.563m-82.853-.047 10.003-28.548L288.964 165h7.286m31.688 71.462L265 236.4M205 265l33.964-100M98 265V165l75 100V165" class="primary" style="display:block"/><g fill="none" style="display:none"><path class="primary"/><path class="primary"/><path class="primary"/></g></g><g clip-path="url(#g)" style="display:none"><path class="secondary" style="display:none"/><g fill="none" mask="url(#h)" style="display:none"><path class="primary"/><path class="primary"/><path class="primary"/></g><g style="mix-blend-mode:multiply;display:none"><path class="secondary"/><path class="secondary" style="mix-blend-mode:multiply"/></g><path fill="none" class="primary" style="display:none"/></g></g></svg>